# ProBuilder 5.1.1
# https://unity3d.com/unity/features/worldbuilding/probuilder
# 11/19/2025 11:00:10 AM

mtllib ./Cube_(2).mtl
o Cube (2)

g Cube (2)
v 0 -0.1000008 100
v -50 -0.1000008 100
v 0 0.1999992 100
v -50 0.1999992 100
v -1637.258 -255.899 100
v -1637.258 -255.899 0
v -1637.258 -255.599 100
v -1637.258 -255.599 0
v -50 -0.1000008 0
v 0 -0.1000008 0
v -50 0.1999992 0
v 0 0.1999992 0
v -89.42145 -2.165359 100
v -89.42145 -2.165359 0
v -89.42145 -1.865356 100
v -89.42145 -1.865356 0
v -109.7457 -2.165359 100
v -109.7457 -2.165359 0
v -109.7457 -1.865356 100
v -109.7457 -1.865356 0
v -147.8089 -16.59473 100
v -147.8089 -16.59473 0
v -147.8089 -16.29473 100
v -147.8089 -16.29473 0
v -184.5665 -27.43095 100
v -184.5665 -27.43095 0
v -184.5665 -27.13095 100
v -184.5665 -27.13095 0
v -237.6444 -46.27541 100
v -237.6444 -46.27541 0
v -237.6444 -45.9754 100
v -237.6444 -45.9754 0
v -292.1809 -46.28547 100
v -292.1809 -46.28547 0
v -292.1809 -45.98547 100
v -292.1809 -45.98547 0
v -375.5765 -43.47502 100
v -375.5765 -43.47502 0
v -375.5765 -43.17502 100
v -375.5765 -43.17502 0
v -438.3157 -31.95856 100
v -438.3157 -31.95856 0
v -438.3157 -31.65855 100
v -438.3157 -31.65855 0
v -490.7092 -15.87192 100
v -490.7092 -15.87192 0
v -490.7092 -15.57191 100
v -490.7092 -15.57191 0
v -524.4459 3.651207 100
v -524.4459 3.651207 0
v -524.4459 3.95121 100
v -524.4459 3.95121 0
v -551.7621 20.54226 100
v -551.7621 20.54226 0
v -551.7621 20.84227 100
v -551.7621 20.84227 0
v -607.0375 25.98883 100
v -607.0375 25.98883 0
v -607.0375 26.28883 100
v -607.0375 26.28883 0
v -694.0946 25.98883 100
v -694.0946 25.98883 0
v -694.0946 26.28883 100
v -694.0946 26.28883 0
v -721.1554 18.80515 100
v -721.1554 18.80515 0
v -721.1554 19.10515 100
v -721.1554 19.10515 0
v -762.5206 0.1810913 100
v -762.5206 0.1810913 0
v -762.5206 0.4810944 100
v -762.5206 0.4810944 0
v -810.1482 -32.69418 100
v -810.1482 -32.69418 0
v -810.1482 -32.39417 100
v -810.1482 -32.39417 0
v -1106.72 -238.2579 100
v -1106.72 -238.2579 0
v -1106.72 -237.9579 100
v -1106.72 -237.9579 0
v -1208.036 -278.3047 100
v -1208.036 -278.3047 0
v -1208.036 -278.0047 100
v -1208.036 -278.0047 0
v -1586.249 -278.3047 100
v -1586.249 -278.3047 0
v -1586.249 -278.0047 100
v -1586.249 -278.0047 0

vt 0 -0.1000008
vt -50 -0.1000008
vt 0 0.1999992
vt -50 0.1999992
vt 100 -255.899
vt 0 -255.899
vt 100 -255.599
vt 0 -255.599
vt 50 -0.1000008
vt 50 0.1999992
vt -100 -0.1000008
vt -100 0.1999992
vt 0 100
vt 50 100
vt 0 0
vt 50 0
vt -50 0
vt -50 100
vt -49.93675 100
vt -49.93675 0
vt -89.41226 100
vt -89.41226 0
vt -89.42145 -1.865356
vt -89.42145 -2.165359
vt 89.42145 -2.165359
vt 89.42145 -1.865356
vt 49.92105 0
vt 49.92105 100
vt 89.39657 0
vt 89.39657 100
vt -89.42145 100
vt -89.42145 0
vt -109.7457 100
vt -109.7457 0
vt -109.7457 -1.865356
vt -109.7457 -2.165359
vt 109.7457 -2.165359
vt 109.7457 -1.865356
vt 89.42145 0
vt 89.42145 100
vt 109.7457 0
vt 109.7457 100
vt -103.387 100
vt -103.387 0
vt -144.0934 100
vt -144.0934 0
vt -147.8089 -16.29473
vt -147.8089 -16.59473
vt 147.8089 -16.59473
vt 147.8089 -16.29473
vt 103.2807 0
vt 103.2807 100
vt 143.9871 0
vt 143.9871 100
vt -146.469 100
vt -146.469 0
vt -184.7906 100
vt -184.7906 0
vt -184.5665 -27.13095
vt -184.5665 -27.43095
vt 184.5665 -27.43095
vt 184.5665 -27.13095
vt 146.3841 0
vt 146.3841 100
vt 184.7058 0
vt 184.7058 100
vt -183.1076 100
vt -183.1076 0
vt -239.4314 100
vt -239.4314 0
vt -237.6444 -45.9754
vt -237.6444 -46.27541
vt 237.6444 -46.27541
vt 237.6444 -45.9754
vt 183.0072 0
vt 183.0072 100
vt 239.331 0
vt 239.331 100
vt -237.653 100
vt -237.653 0
vt -292.1895 100
vt -292.1895 0
vt -292.1809 -45.98547
vt -292.1809 -46.28547
vt 292.1809 -46.28547
vt 292.1809 -45.98547
vt 237.6529 0
vt 237.6529 100
vt 292.1894 0
vt 292.1894 100
vt -290.4562 100
vt -290.4562 0
vt -373.8992 100
vt -373.8992 0
vt -375.5765 -43.17502
vt -375.5765 -43.47502
vt 375.5765 -43.47502
vt 375.5765 -43.17502
vt 290.4663 0
vt 290.4663 100
vt 373.9093 0
vt 373.9093 100
vt -361.5555 100
vt -361.5555 0
vt -425.3429 100
vt -425.3429 0
vt -438.3157 -31.65855
vt -438.3157 -31.95856
vt 438.3157 -31.95856
vt 438.3157 -31.65855
vt 361.6096 0
vt 361.6096 100
vt 425.3971 0
vt 425.3971 100
vt -409.6301 100
vt -409.6301 0
vt -464.4376 100
vt -464.4376 0
vt -490.7092 -15.57191
vt -490.7092 -15.87192
vt 490.7092 -15.87192
vt 490.7092 -15.57191
vt 409.7181 0
vt 409.7181 100
vt 464.5256 0
vt 464.5256 100
vt -416.7701 100
vt -416.7701 0
vt -455.7485 100
vt -455.7485 0
vt -524.4459 3.95121
vt -524.4459 3.651207
vt 524.4459 3.651207
vt 524.4459 3.95121
vt 416.9203 0
vt 416.9203 100
vt 455.8988 0
vt 455.8988 100
vt -447.9768 100
vt -447.9768 0
vt -480.0934 100
vt -480.0934 0
vt -551.7621 20.84227
vt -551.7621 20.54226
vt 551.7621 20.54226
vt 551.7621 20.84227
vt 448.1346 0
vt 448.1346 100
vt 480.2512 0
vt 480.2512 100
vt -551.1172 100
vt -551.1172 0
vt -606.6603 100
vt -606.6603 0
vt -607.0375 26.28883
vt -607.0375 25.98883
vt 607.0375 25.98883
vt 607.0375 26.28883
vt 551.1467 0
vt 551.1467 100
vt 606.6898 0
vt 606.6898 100
vt -607.0375 100
vt -607.0375 0
vt -694.0946 100
vt -694.0946 0
vt -694.0946 26.28883
vt -694.0946 25.98883
vt 694.0946 25.98883
vt 694.0946 26.28883
vt 607.0375 0
vt 607.0375 100
vt 694.0946 0
vt 694.0946 100
vt -664.1907 100
vt -664.1907 0
vt -692.1888 100
vt -692.1888 0
vt -721.1554 19.10515
vt -721.1554 18.80515
vt 721.1554 18.80515
vt 721.1554 19.10515
vt 664.1137 0
vt 664.1137 100
vt 692.1118 0
vt 692.1118 100
vt -649.8591 100
vt -649.8591 0
vt -695.2236 100
vt -695.2236 0
vt -762.5206 0.4810944
vt -762.5206 0.1810913
vt 762.5206 0.1810913
vt 762.5206 0.4810944
vt 649.7359 0
vt 649.7359 100
vt 695.1004 0
vt 695.1004 100
vt -627.4373 100
vt -627.4373 0
vt -685.3093 100
vt -685.3093 0
vt -810.1482 -32.39417
vt -810.1482 -32.69418
vt 810.1482 -32.69418
vt 810.1482 -32.39417
vt 627.2668 0
vt 627.2668 100
vt 685.1389 0
vt 685.1389 100
vt -684.465 100
vt -684.465 0
vt -1045.313 100
vt -1045.313 0
vt -1106.72 -237.9579
vt -1106.72 -238.2579
vt 1106.72 -238.2579
vt 1106.72 -237.9579
vt 684.2942 0
vt 684.2942 100
vt 1045.142 0
vt 1045.142 100
vt -1116.817 100
vt -1116.817 0
vt -1225.76 100
vt -1225.76 0
vt -1208.036 -278.0047
vt -1208.036 -278.3047
vt 1208.036 -278.3047
vt 1208.036 -278.0047
vt 1116.706 0
vt 1116.706 100
vt 1225.65 0
vt 1225.65 100
vt -1208.036 100
vt -1208.036 0
vt -1586.249 100
vt -1586.249 0
vt -1586.249 -278.0047
vt -1586.249 -278.3047
vt 1586.249 -278.3047
vt 1586.249 -278.0047
vt 1208.036 0
vt 1208.036 100
vt 1586.249 0
vt 1586.249 100
vt -1340.395 100
vt -1340.395 0
vt -1396.108 100
vt -1396.108 0
vt -1637.258 -255.599
vt -1637.258 -255.899
vt 1637.258 -255.899
vt 1637.258 -255.599
vt 1340.516 0
vt 1340.516 100
vt 1396.229 0
vt 1396.229 100

vn 0 0 1
vn -1 0 0
vn 0 0 -1
vn 1 0 0
vn 0 1 0
vn 0 -1 0
vn 0.05231999 -0.9986303 0
vn -0.05231993 0.9986304 0
vn 0.3544742 -0.9350657 0
vn -0.3544742 0.9350657 0
vn 0.2827703 -0.9591876 0
vn -0.2827703 0.9591876 0
vn 0.3345733 -0.9423698 0
vn -0.3345733 0.9423698 0
vn -0.03368106 -0.9994326 0
vn 0.03368106 0.9994326 0
vn -0.1805444 -0.9835669 0
vn 0.1805444 0.9835669 0
vn -0.2935118 -0.9559554 0
vn 0.2935118 0.9559554 0
vn -0.5008702 -0.8655224 0
vn 0.5008702 0.8655224 0
vn -0.525928 -0.8505291 0
vn 0.525928 0.8505291 0
vn -0.09806017 -0.9951805 0
vn 0.09806017 0.9951805 0
vn 0.2565777 -0.9665236 0
vn -0.2565777 0.9665236 0
vn 0.4105425 -0.9118415 0
vn -0.4105425 0.9118415 0
vn 0.5680686 -0.8229812 0
vn -0.5680686 0.8229812 0
vn 0.5696686 -0.8218746 0
vn -0.5696685 0.8218746 0
vn 0.3675938 -0.9299865 0
vn -0.3675938 0.9299865 0
vn -0.402163 -0.9155681 0
vn 0.402163 0.9155681 0

usemtl Grass
f 3/3/1 4/4/1 2/2/1 1/1/1
f 7/7/2 8/8/2 6/6/2 5/5/2
f 11/10/3 12/3/3 10/1/3 9/9/3
f 12/3/4 3/12/4 1/11/4 10/1/4
f 12/15/5 11/16/5 4/14/5 3/13/5
f 1/13/6 2/18/6 9/17/6 10/15/6
f 13/21/7 14/22/7 9/20/7 2/19/7
f 15/23/1 13/24/1 2/2/1 4/4/1
f 14/25/3 16/26/3 11/10/3 9/9/3
f 16/29/8 15/30/8 4/28/8 11/27/8
f 17/33/6 18/34/6 14/32/6 13/31/6
f 19/35/1 17/36/1 13/24/1 15/23/1
f 18/37/3 20/38/3 16/26/3 14/25/3
f 20/41/5 19/42/5 15/40/5 16/39/5
f 21/45/9 22/46/9 18/44/9 17/43/9
f 23/47/1 21/48/1 17/36/1 19/35/1
f 22/49/3 24/50/3 20/38/3 18/37/3
f 24/53/10 23/54/10 19/52/10 20/51/10
f 25/57/11 26/58/11 22/56/11 21/55/11
f 27/59/1 25/60/1 21/48/1 23/47/1
f 26/61/3 28/62/3 24/50/3 22/49/3
f 28/65/12 27/66/12 23/64/12 24/63/12
f 29/69/13 30/70/13 26/68/13 25/67/13
f 31/71/1 29/72/1 25/60/1 27/59/1
f 30/73/3 32/74/3 28/62/3 26/61/3
f 32/77/14 31/78/14 27/76/14 28/75/14
f 33/81/6 34/82/6 30/80/6 29/79/6
f 35/83/1 33/84/1 29/72/1 31/71/1
f 34/85/3 36/86/3 32/74/3 30/73/3
f 36/89/5 35/90/5 31/88/5 32/87/5
f 37/93/15 38/94/15 34/92/15 33/91/15
f 39/95/1 37/96/1 33/84/1 35/83/1
f 38/97/3 40/98/3 36/86/3 34/85/3
f 40/101/16 39/102/16 35/100/16 36/99/16
f 41/105/17 42/106/17 38/104/17 37/103/17
f 43/107/1 41/108/1 37/96/1 39/95/1
f 42/109/3 44/110/3 40/98/3 38/97/3
f 44/113/18 43/114/18 39/112/18 40/111/18
f 45/117/19 46/118/19 42/116/19 41/115/19
f 47/119/1 45/120/1 41/108/1 43/107/1
f 46/121/3 48/122/3 44/110/3 42/109/3
f 48/125/20 47/126/20 43/124/20 44/123/20
f 49/129/21 50/130/21 46/128/21 45/127/21
f 51/131/1 49/132/1 45/120/1 47/119/1
f 50/133/3 52/134/3 48/122/3 46/121/3
f 52/137/22 51/138/22 47/136/22 48/135/22
f 53/141/23 54/142/23 50/140/23 49/139/23
f 55/143/1 53/144/1 49/132/1 51/131/1
f 54/145/3 56/146/3 52/134/3 50/133/3
f 56/149/24 55/150/24 51/148/24 52/147/24
f 57/153/25 58/154/25 54/152/25 53/151/25
f 59/155/1 57/156/1 53/144/1 55/143/1
f 58/157/3 60/158/3 56/146/3 54/145/3
f 60/161/26 59/162/26 55/160/26 56/159/26
f 61/165/6 62/166/6 58/164/6 57/163/6
f 63/167/1 61/168/1 57/156/1 59/155/1
f 62/169/3 64/170/3 60/158/3 58/157/3
f 64/173/5 63/174/5 59/172/5 60/171/5
f 65/177/27 66/178/27 62/176/27 61/175/27
f 67/179/1 65/180/1 61/168/1 63/167/1
f 66/181/3 68/182/3 64/170/3 62/169/3
f 68/185/28 67/186/28 63/184/28 64/183/28
f 69/189/29 70/190/29 66/188/29 65/187/29
f 71/191/1 69/192/1 65/180/1 67/179/1
f 70/193/3 72/194/3 68/182/3 66/181/3
f 72/197/30 71/198/30 67/196/30 68/195/30
f 73/201/31 74/202/31 70/200/31 69/199/31
f 75/203/1 73/204/1 69/192/1 71/191/1
f 74/205/3 76/206/3 72/194/3 70/193/3
f 76/209/32 75/210/32 71/208/32 72/207/32
f 77/213/33 78/214/33 74/212/33 73/211/33
f 79/215/1 77/216/1 73/204/1 75/203/1
f 78/217/3 80/218/3 76/206/3 74/205/3
f 80/221/34 79/222/34 75/220/34 76/219/34
f 81/225/35 82/226/35 78/224/35 77/223/35
f 83/227/1 81/228/1 77/216/1 79/215/1
f 82/229/3 84/230/3 80/218/3 78/217/3
f 84/233/36 83/234/36 79/232/36 80/231/36
f 85/237/6 86/238/6 82/236/6 81/235/6
f 87/239/1 85/240/1 81/228/1 83/227/1
f 86/241/3 88/242/3 84/230/3 82/229/3
f 88/245/5 87/246/5 83/244/5 84/243/5
f 5/249/37 6/250/37 86/248/37 85/247/37
f 7/251/1 5/252/1 85/240/1 87/239/1
f 6/253/3 8/254/3 88/242/3 86/241/3
f 8/257/38 7/258/38 87/256/38 88/255/38

