# ProBuilder 5.1.1
# https://unity3d.com/unity/features/worldbuilding/probuilder
# 11/19/2025 11:00:10 AM

mtllib ./Cube.mtl
o Cube

g Cube
v 33.89951 -6.870923 45.94706
v -16.10049 -6.870923 45.94706
v 33.89951 -6.770923 45.94706
v -16.10049 -6.770923 45.94706
v -47.0607 0.4891605 45.94706
v -47.0607 0.4891605 -54.05294
v -47.0607 0.5891628 45.94706
v -47.0607 0.5891628 -54.05294
v -16.10049 -6.870923 -54.05294
v 33.89951 -6.870923 -54.05294
v -16.10049 -6.770923 -54.05294
v 33.89951 -6.770923 -54.05294
v -37.43929 -5.051157 45.94706
v -37.43929 -5.051157 -54.05294
v -37.43929 -4.951155 45.94706
v -37.43929 -4.951155 -54.05294
v -43.32773 -1.692125 45.94706
v -43.32773 -1.692125 -54.05294
v -43.32773 -1.592123 45.94706
v -43.32773 -1.592123 -54.05294

vt 33.89951 -6.870923
vt -16.10049 -6.870923
vt 33.89951 -6.770923
vt -16.10049 -6.770923
vt 45.94706 0.4891605
vt -54.05294 0.4891605
vt 45.94706 0.5891628
vt -54.05294 0.5891628
vt 16.10049 -6.870923
vt -33.89951 -6.870923
vt 16.10049 -6.770923
vt -33.89951 -6.770923
vt 54.05294 -6.870923
vt -45.94706 -6.870923
vt 54.05294 -6.770923
vt -45.94706 -6.770923
vt -33.89951 45.94706
vt 16.10049 45.94706
vt -33.89951 -54.05294
vt 16.10049 -54.05294
vt 33.89951 -54.05294
vt -16.10049 -54.05294
vt 33.89951 45.94706
vt -16.10049 45.94706
vt -15.45843 45.94706
vt -15.45843 -54.05294
vt -36.87468 45.94706
vt -36.87468 -54.05294
vt -37.43929 -4.951155
vt -37.43929 -5.051157
vt 37.43929 -5.051157
vt 37.43929 -4.951155
vt 15.46693 -54.05294
vt 15.46693 45.94706
vt 36.88318 -54.05294
vt 36.88318 45.94706
vt -30.01735 45.94706
vt -30.01735 -54.05294
vt -36.7965 45.94706
vt -36.7965 -54.05294
vt -43.32773 -1.592123
vt -43.32773 -1.692125
vt 43.32773 -1.692125
vt 43.32773 -1.592123
vt 30.0669 -54.05294
vt 30.0669 45.94706
vt 36.84605 -54.05294
vt 36.84605 45.94706
vt -36.55565 45.94706
vt -36.55565 -54.05294
vt -40.8792 45.94706
vt -40.8792 -54.05294
vt -47.0607 0.5891628
vt -47.0607 0.4891605
vt 47.0607 0.4891605
vt 47.0607 0.5891628
vt 36.6061 -54.05294
vt 36.6061 45.94706
vt 40.92965 -54.05294
vt 40.92965 45.94706

vn 0 0 1
vn -1 0 0
vn 0 0 -1
vn 1 0 0
vn 0 1 0
vn 0 -1 0
vn -0.08497129 -0.9963834 0
vn 0.08497138 0.9963834 0
vn -0.4954946 -0.868611 0
vn 0.4954946 0.868611 0
vn -0.5045128 -0.8634043 0
vn 0.5045128 0.8634043 0

usemtl Grass
f 3/3/1 4/4/1 2/2/1 1/1/1
f 7/7/2 8/8/2 6/6/2 5/5/2
f 11/11/3 12/12/3 10/10/3 9/9/3
f 12/15/4 3/16/4 1/14/4 10/13/4
f 12/19/5 11/20/5 4/18/5 3/17/5
f 1/23/6 2/24/6 9/22/6 10/21/6
f 13/27/7 14/28/7 9/26/7 2/25/7
f 15/29/1 13/30/1 2/2/1 4/4/1
f 14/31/3 16/32/3 11/11/3 9/9/3
f 16/35/8 15/36/8 4/34/8 11/33/8
f 17/39/9 18/40/9 14/38/9 13/37/9
f 19/41/1 17/42/1 13/30/1 15/29/1
f 18/43/3 20/44/3 16/32/3 14/31/3
f 20/47/10 19/48/10 15/46/10 16/45/10
f 5/51/11 6/52/11 18/50/11 17/49/11
f 7/53/1 5/54/1 17/42/1 19/41/1
f 6/55/3 8/56/3 20/44/3 18/43/3
f 8/59/12 7/60/12 19/58/12 20/57/12

