# ProBuilder 5.1.1
# https://unity3d.com/unity/features/worldbuilding/probuilder
# 11/19/2025 11:00:10 AM

mtllib ./Cube_(1).mtl
o Cube (1)

g Cube (1)
v 0 0 99.99999
v -31.96772 0 99.99999
v 0 0.1 99.99999
v -31.96772 0.1000004 99.99999
v -622.0373 -35.83486 99.99999
v -622.0373 -35.83486 -7.629395E-06
v -622.0373 -35.73486 99.99999
v -622.0373 -35.73486 -7.629395E-06
v -31.96772 0 -7.629395E-06
v 0 0 -7.629395E-06
v -31.96772 0.1000004 -7.629395E-06
v 0 0.1 -7.629395E-06
v -68.46531 -7.33395 99.99999
v -68.46531 -7.33395 -7.629395E-06
v -68.46531 -7.23395 99.99999
v -68.46531 -7.23395 -7.629395E-06
v -91.56322 -10.75668 99.99999
v -91.56322 -10.75668 -7.629395E-06
v -91.56322 -10.65668 99.99999
v -91.56322 -10.65668 -7.629395E-06
v -159.587 -13.6319 99.99999
v -159.587 -13.6319 -7.629395E-06
v -159.587 -13.5319 99.99999
v -159.587 -13.5319 -7.629395E-06
v -214.4468 -25.80674 99.99999
v -214.4468 -25.80674 -7.629395E-06
v -214.4468 -25.70674 99.99999
v -214.4468 -25.70674 -7.629395E-06
v -266.4166 -47.00957 99.99999
v -266.4166 -47.00957 -7.629395E-06
v -266.4166 -46.90958 99.99999
v -266.4166 -46.90958 -7.629395E-06
v -300.6737 -61.03002 99.99999
v -300.6737 -61.03002 -7.629395E-06
v -300.6737 -60.93001 99.99999
v -300.6737 -60.93001 -7.629395E-06
v -399.3129 -79.28647 99.99999
v -399.3129 -79.28647 -7.629395E-06
v -399.3129 -79.18646 99.99999
v -399.3129 -79.18646 -7.629395E-06
v -530.5718 -79.28647 99.99999
v -530.5718 -79.28647 -7.629395E-06
v -530.5718 -79.18646 99.99999
v -530.5718 -79.18646 -7.629395E-06
v -587.4432 -53.23037 99.99999
v -587.4432 -53.23037 -7.629395E-06
v -587.4432 -53.13036 99.99999
v -587.4432 -53.13036 -7.629395E-06
v -614.2807 -35.83486 99.99999
v -614.2807 -35.83486 -7.629395E-06
v -614.2807 -35.73486 99.99999
v -614.2807 -35.73486 -7.629395E-06
v -614.2807 -41.77164 99.99999
v -614.2807 -41.77164 -7.629395E-06
v -622.0373 -41.77164 99.99999
v -622.0373 -41.77164 -7.629395E-06

vt 0 0
vt -31.96772 0
vt 0 0.1
vt -31.96772 0.1000004
vt 99.99999 -35.83486
vt -7.629395E-06 -35.83486
vt 99.99999 -35.73486
vt -7.629395E-06 -35.73486
vt 31.96772 0
vt 31.96772 0.1000004
vt -99.99999 0
vt -99.99999 0.1
vt 1.188635E-09 99.99999
vt 31.96772 99.99999
vt -31.96772 99.99999
vt -31.34123 99.99999
vt -31.34123 -7.629395E-06
vt -68.56838 99.99999
vt -68.56838 -7.629395E-06
vt -68.46531 -7.23395
vt -68.46531 -7.33395
vt 68.46531 -7.33395
vt 68.46531 -7.23395
vt 31.32153 -7.629395E-06
vt 31.32153 99.99999
vt 68.54868 -7.629395E-06
vt 68.54868 99.99999
vt -68.8008 99.99999
vt -68.8008 -7.629395E-06
vt -92.15093 99.99999
vt -92.15093 -7.629395E-06
vt -91.56322 -10.65668
vt -91.56322 -10.75668
vt 91.56322 -10.75668
vt 91.56322 -10.65668
vt 68.78615 -7.629395E-06
vt 68.78615 99.99999
vt 92.13628 -7.629395E-06
vt 92.13628 99.99999
vt -91.93579 99.99999
vt -91.93579 -7.629395E-06
vt -160.0203 99.99999
vt -160.0203 -7.629395E-06
vt -159.587 -13.5319
vt -159.587 -13.6319
vt 159.587 -13.6319
vt 159.587 -13.5319
vt 91.93156 -7.629395E-06
vt 91.93156 99.99999
vt 160.0161 -7.629395E-06
vt 160.0161 99.99999
vt -158.75 99.99999
vt -158.75 -7.629395E-06
vt -214.9445 99.99999
vt -214.9445 -7.629395E-06
vt -214.4468 -25.70674
vt -214.4468 -25.80674
vt 214.4468 -25.80674
vt 214.4468 -25.70674
vt 158.7283 -7.629395E-06
vt 158.7283 99.99999
vt 214.9228 -7.629395E-06
vt 214.9228 99.99999
vt -208.3061 99.99999
vt -208.3061 -7.629395E-06
vt -264.4347 99.99999
vt -264.4347 -7.629395E-06
vt -266.4166 -46.90958
vt -266.4166 -47.00957
vt 266.4166 -47.00957
vt 266.4166 -46.90958
vt 208.2684 -7.629395E-06
vt 208.2684 99.99999
vt 264.3969 -7.629395E-06
vt 264.3969 99.99999
vt -264.3716 99.99999
vt -264.3716 -7.629395E-06
vt -301.3868 99.99999
vt -301.3868 -7.629395E-06
vt -300.6737 -60.93001
vt -300.6737 -61.03002
vt 300.6737 -61.03002
vt 300.6737 -60.93001
vt 264.3337 -7.629395E-06
vt 264.3337 99.99999
vt 301.3489 -7.629395E-06
vt 301.3489 99.99999
vt -306.7594 99.99999
vt -306.7594 -7.629395E-06
vt -407.0739 99.99999
vt -407.0739 -7.629395E-06
vt -399.3129 -79.18646
vt -399.3129 -79.28647
vt 399.3129 -79.28647
vt 399.3129 -79.18646
vt 306.7412 -7.629395E-06
vt 306.7412 99.99999
vt 407.0557 -7.629395E-06
vt 407.0557 99.99999
vt -399.3129 99.99999
vt -399.3129 -7.629395E-06
vt -530.5718 99.99999
vt -530.5718 -7.629395E-06
vt -530.5718 -79.18646
vt -530.5718 -79.28647
vt 530.5718 -79.28647
vt 530.5718 -79.18646
vt 399.3129 -7.629395E-06
vt 399.3129 99.99999
vt 530.5718 -7.629395E-06
vt 530.5718 99.99999
vt -449.3314 99.99999
vt -449.3314 -7.629395E-06
vt -511.8875 99.99999
vt -511.8875 -7.629395E-06
vt -587.4432 -53.13036
vt -587.4432 -53.23037
vt 587.4432 -53.23037
vt 587.4432 -53.13036
vt 449.373 -7.629395E-06
vt 449.373 99.99999
vt 511.9292 -7.629395E-06
vt 511.9292 99.99999
vt -463.9952 99.99999
vt -463.9952 -7.629395E-06
vt -495.9773 99.99999
vt -495.9773 -7.629395E-06
vt -614.2807 -35.73486
vt -614.2807 -35.83486
vt 614.2807 -35.83486
vt 614.2807 -35.73486
vt 464.0496 -7.629395E-06
vt 464.0496 99.99999
vt 496.0317 -7.629395E-06
vt 496.0317 99.99999
vt -614.2807 99.99999
vt -614.2807 -7.629395E-06
vt -622.0373 99.99999
vt -622.0373 -7.629395E-06
vt -622.0373 -35.73486
vt -622.0373 -35.83486
vt 622.0373 -35.83486
vt 622.0373 -35.73486
vt 614.2807 -7.629395E-06
vt 614.2807 99.99999
vt 622.0373 -7.629395E-06
vt 622.0373 99.99999
vt -99.99999 -35.83486
vt -99.99999 -41.77164
vt 7.629395E-06 -41.77164
vt -622.0373 -41.77164
vt -614.2807 -41.77164
vt 614.2807 -41.77164
vt 622.0373 -41.77164
vt 99.99999 -41.77164

vn 0 0 1
vn -1 0 0
vn 0 0 -1
vn 1 0 0
vn 1.188635E-08 1 0
vn 0 -1 0
vn 0.1970054 -0.9804024 0
vn -0.1970054 0.9804024 0
vn 0.1465831 -0.9891984 0
vn -0.1465831 0.9891984 0
vn 0.04223007 -0.9991079 0
vn -0.04223007 0.9991079 0
vn 0.2166553 -0.9762482 0
vn -0.2166553 0.9762482 0
vn 0.377755 -0.9259056 0
vn -0.377755 0.9259056 0
vn 0.3787754 -0.9254887 0
vn -0.3787752 0.9254887 0
vn 0.1819923 -0.9833 0
vn -0.1819923 0.9833 0
vn -0.4165236 -0.9091249 0
vn 0.4165236 0.9091249 0
vn -0.5439134 -0.8391414 0
vn 0.5439134 0.8391414 0

usemtl Grass
f 3/3/1 4/4/1 2/2/1 1/1/1
f 7/7/2 8/8/2 6/6/2 5/5/2
f 11/10/3 12/3/3 10/1/3 9/9/3
f 12/3/4 3/12/4 1/11/4 10/1/4
f 12/1/5 11/9/5 4/14/5 3/13/5
f 1/13/6 2/15/6 9/2/6 10/1/6
f 13/18/7 14/19/7 9/17/7 2/16/7
f 15/20/1 13/21/1 2/2/1 4/4/1
f 14/22/3 16/23/3 11/10/3 9/9/3
f 16/26/8 15/27/8 4/25/8 11/24/8
f 17/30/9 18/31/9 14/29/9 13/28/9
f 19/32/1 17/33/1 13/21/1 15/20/1
f 18/34/3 20/35/3 16/23/3 14/22/3
f 20/38/10 19/39/10 15/37/10 16/36/10
f 21/42/11 22/43/11 18/41/11 17/40/11
f 23/44/1 21/45/1 17/33/1 19/32/1
f 22/46/3 24/47/3 20/35/3 18/34/3
f 24/50/12 23/51/12 19/49/12 20/48/12
f 25/54/13 26/55/13 22/53/13 21/52/13
f 27/56/1 25/57/1 21/45/1 23/44/1
f 26/58/3 28/59/3 24/47/3 22/46/3
f 28/62/14 27/63/14 23/61/14 24/60/14
f 29/66/15 30/67/15 26/65/15 25/64/15
f 31/68/1 29/69/1 25/57/1 27/56/1
f 30/70/3 32/71/3 28/59/3 26/58/3
f 32/74/16 31/75/16 27/73/16 28/72/16
f 33/78/17 34/79/17 30/77/17 29/76/17
f 35/80/1 33/81/1 29/69/1 31/68/1
f 34/82/3 36/83/3 32/71/3 30/70/3
f 36/86/18 35/87/18 31/85/18 32/84/18
f 37/90/19 38/91/19 34/89/19 33/88/19
f 39/92/1 37/93/1 33/81/1 35/80/1
f 38/94/3 40/95/3 36/83/3 34/82/3
f 40/98/20 39/99/20 35/97/20 36/96/20
f 41/102/6 42/103/6 38/101/6 37/100/6
f 43/104/1 41/105/1 37/93/1 39/92/1
f 42/106/3 44/107/3 40/95/3 38/94/3
f 44/110/5 43/111/5 39/109/5 40/108/5
f 45/114/21 46/115/21 42/113/21 41/112/21
f 47/116/1 45/117/1 41/105/1 43/104/1
f 46/118/3 48/119/3 44/107/3 42/106/3
f 48/122/22 47/123/22 43/121/22 44/120/22
f 49/126/23 50/127/23 46/125/23 45/124/23
f 51/128/1 49/129/1 45/117/1 47/116/1
f 50/130/3 52/131/3 48/119/3 46/118/3
f 52/134/24 51/135/24 47/133/24 48/132/24
f 55/138/6 56/139/6 54/137/6 53/136/6
f 7/140/1 5/141/1 49/129/1 51/128/1
f 6/142/3 8/143/3 52/131/3 50/130/3
f 8/146/5 7/147/5 51/145/5 52/144/5
f 53/149/4 54/150/4 50/6/4 49/148/4
f 55/151/1 53/152/1 49/129/1 5/141/1
f 54/153/3 56/154/3 6/142/3 50/130/3
f 56/150/2 55/155/2 5/5/2 6/6/2

